HIERARCHY
ROOT hip
{
  OFFSET 0 0 0
  CHANNELS 6 Xposition Yposition Zposition Zrotation Yrotation Xrotation
  JOINT abdomen
  {
    OFFSET 0 20.6881 -0.73152
    CHANNELS 3 Zrotation Xrotation Yrotation
    JOINT chest
    {
      OFFSET 0 11.7043 -0.48768
      CHANNELS 3 Zrotation Xrotation Yrotation
      JOINT neck
      {
        OFFSET 0 22.1894 -2.19456
        CHANNELS 3 Zrotation Xrotation Yrotation
        JOINT head
        {
          OFFSET -0.24384 7.07133 1.2192
          CHANNELS 3 Zrotation Xrotation Yrotation
          JOINT leftEye
          {
            OFFSET 4.14528 8.04674 8.04672
            CHANNELS 3 Zrotation Xrotation Yrotation
            End Site
            {
              OFFSET 1 0 0
            }
          }
          JOINT rightEye
          {
            OFFSET -3.6576 8.04674 8.04672
            CHANNELS 3 Zrotation Xrotation Yrotation
            End Site
            {
              OFFSET 1 0 0
            }
          }
        }
      }
      JOINT rCollar
      {
        OFFSET -2.68224 19.2634 -4.8768
        CHANNELS 3 Zrotation Xrotation Yrotation
        JOINT rShldr
        {
          OFFSET -8.77824 -1.95073 1.46304
          CHANNELS 3 Zrotation Xrotation Yrotation
          JOINT rForeArm
          {
            OFFSET -28.1742 -1.7115 0.48768
            CHANNELS 3 Zrotation Xrotation Yrotation
            JOINT rHand
            {
              OFFSET -22.5879 0.773209 7.07136
              CHANNELS 3 Zrotation Xrotation Yrotation
              JOINT rThumb1
              {
                OFFSET -1.2192 -0.487915 3.41376
                CHANNELS 3 Zrotation Xrotation Yrotation
                JOINT rThumb2
                {
                  OFFSET -3.37035 -0.52449 3.41376
                  CHANNELS 3 Zrotation Xrotation Yrotation
                  End Site
                  {
                    OFFSET -1.78271 -1.18214 1.43049
                  }
                }
              }
              JOINT rIndex1
              {
                OFFSET -7.75947 0.938293 5.60832
                CHANNELS 3 Zrotation Xrotation Yrotation
                JOINT rIndex2
                {
                  OFFSET -2.54057 -0.884171 1.56538
                  CHANNELS 3 Zrotation Xrotation Yrotation
                  End Site
                  {
                    OFFSET -1.62519 -0.234802 1.16502
                  }
                }
              }
              JOINT rMid1
              {
                OFFSET -8.24714 1.18213 3.41376
                CHANNELS 3 Zrotation Xrotation Yrotation
                JOINT rMid2
                {
                  OFFSET -3.10165 -0.590103 1.0647
                  CHANNELS 3 Zrotation Xrotation Yrotation
                  End Site
                  {
                    OFFSET -2.48547 -0.328903 0.83742
                  }
                }
              }
              JOINT rRing1
              {
                OFFSET -8.82822 0.546677 1.51678
                CHANNELS 3 Zrotation Xrotation Yrotation
                JOINT rRing2
                {
                  OFFSET -2.60934 -0.819778 -0.0198488
                  CHANNELS 3 Zrotation Xrotation Yrotation
                  End Site
                  {
                    OFFSET -2.33842 -0.294052 0.168128
                  }
                }
              }
              JOINT rPinky1
              {
                OFFSET -8.27202 -0.0477905 -0.4584
                CHANNELS 3 Zrotation Xrotation Yrotation
                JOINT rPinky2
                {
                  OFFSET -1.82734 -0.647385 -0.700984
                  CHANNELS 3 Zrotation Xrotation Yrotation
                  End Site
                  {
                    OFFSET -1.69225 -0.51767 -0.607171
                  }
                }
              }
            }
          }
        }
      }
      JOINT lCollar
      {
        OFFSET 2.68224 19.2634 -4.8768
        CHANNELS 3 Zrotation Xrotation Yrotation
        JOINT lShldr
        {
          OFFSET 8.77824 -1.95073 1.46304
          CHANNELS 3 Zrotation Xrotation Yrotation
          JOINT lForeArm
          {
            OFFSET 28.1742 -1.7115 0.48768
            CHANNELS 3 Zrotation Xrotation Yrotation
            JOINT lHand
            {
              OFFSET 22.5879 0.773209 7.07136
              CHANNELS 3 Zrotation Xrotation Yrotation
              JOINT lThumb1
              {
                OFFSET 1.2192 -0.487915 3.41376
                CHANNELS 3 Zrotation Xrotation Yrotation
                JOINT lThumb2
                {
                  OFFSET 3.37035 -0.52449 3.41376
                  CHANNELS 3 Zrotation Xrotation Yrotation
                  End Site
                  {
                    OFFSET 1.78271 -1.18214 1.43049
                  }
                }
              }
              JOINT lIndex1
              {
                OFFSET 7.75947 0.938293 5.60832
                CHANNELS 3 Zrotation Xrotation Yrotation
                JOINT lIndex2
                {
                  OFFSET 2.54057 -0.884171 1.56538
                  CHANNELS 3 Zrotation Xrotation Yrotation
                  End Site
                  {
                    OFFSET 1.62519 -0.234802 1.16502
                  }
                }
              }
              JOINT lMid1
              {
                OFFSET 8.24714 1.18213 3.41376
                CHANNELS 3 Zrotation Xrotation Yrotation
                JOINT lMid2
                {
                  OFFSET 3.10165 -0.590103 1.0647
                  CHANNELS 3 Zrotation Xrotation Yrotation
                  End Site
                  {
                    OFFSET 2.48547 -0.328903 0.83742
                  }
                }
              }
              JOINT lRing1
              {
                OFFSET 8.82822 0.546677 1.51678
                CHANNELS 3 Zrotation Xrotation Yrotation
                JOINT lRing2
                {
                  OFFSET 2.60934 -0.819778 -0.0198488
                  CHANNELS 3 Zrotation Xrotation Yrotation
                  End Site
                  {
                    OFFSET 2.33842 -0.294052 0.168128
                  }
                }
              }
              JOINT lPinky1
              {
                OFFSET 8.27202 -0.0477905 -0.4584
                CHANNELS 3 Zrotation Xrotation Yrotation
                JOINT lPinky2
                {
                  OFFSET 1.82734 -0.647385 -0.700984
                  CHANNELS 3 Zrotation Xrotation Yrotation
                  End Site
                  {
                    OFFSET 1.69225 -0.51767 -0.607171
                  }
                }
              }
            }
          }
        }
      }
    }
  }
  JOINT rButtock
  {
    OFFSET -8.77824 4.35084 1.2192
    CHANNELS 3 Zrotation Xrotation Yrotation
    JOINT rThigh
    {
      OFFSET 0 -1.70687 -2.19456
      CHANNELS 3 Zrotation Xrotation Yrotation
      JOINT rShin
      {
        OFFSET 0 -36.8199 0.73152
        CHANNELS 3 Zrotation Xrotation Yrotation
        JOINT rFoot
        {
          OFFSET 0.73152 -45.1104 -5.12064
          CHANNELS 3 Zrotation Xrotation Yrotation
          End Site
          {
            OFFSET -1.1221 -3.69964 12.103
          }
        }
      }
    }
  }
  JOINT lButtock
  {
    OFFSET 8.77824 4.35084 1.2192
    CHANNELS 3 Zrotation Xrotation Yrotation
    JOINT lThigh
    {
      OFFSET 0 -1.70687 -2.19456
      CHANNELS 3 Zrotation Xrotation Yrotation
      JOINT lShin
      {
        OFFSET 0 -36.8199 0.73152
        CHANNELS 3 Zrotation Xrotation Yrotation
        JOINT lFoot
        {
          OFFSET -0.73152 -45.1104 -5.12064
          CHANNELS 3 Zrotation Xrotation Yrotation
          End Site
          {
            OFFSET 1.1221 -3.69964 12.103
          }
        }
      }
    }
  }
}
MOTION
Frames:	6
Frame Time:	0.03333
-66.6005 58.587999999999994 -30.8429 -12.080842 22.717078 -0.376934 2.83051 11.830346 -11.728996 5.419681 -11.692428 27.480032 8.707803 22.182638 110.086636 -27.779828 12.270696 -87.598272 -0.002625 -0.0 0.000197 -0.002625 -0.0 0.000197 -0.792842 4.501149 1.033427 100.821824 -16.822759 37.150949 -86.27394 -88.570672 147.115804 156.91908 -36.757409 138.621853 -9.509018 9.037525 2.190126 -2.708556 3.90858 8.035948 12.616654 -22.530607 -5.215984 -58.471396 48.849493 46.630592 -5.311256 14.049816 3.370178 -160.504967 3.334924 142.307244 -145.113921 -0.304639 -179.032713 -154.272033 -11.29681 -177.68848 -155.958235 52.111106 -149.91088 -161.486768 52.687426 -147.204448 -1.048089 -6.807752 1.449012 101.800861 -9.296929 -120.86211 -81.455286 -45.747285 142.213852 -178.634861 41.756586 -160.432878 21.938994 19.223347 -6.983079 64.293186 17.880943 -62.649196 142.085045 -0.756558 -116.980949 -0.649969 16.667275 5.920411 56.765164 58.998775 -49.469432 153.525686 20.693688 -138.38325 145.107352 -1.050656 178.797964 156.850218 24.491553 -177.974456 1.610524 -4.038064 1.495916 153.966311 35.988299 148.258738 -0.001976 0.000807 -0.002905 -24.06097 -1.620035 -90.545373 -66.129874 6.663873 -59.358035 108.3601 -34.842822 -144.196177 -0.00044 -0.00037 -0.000702 70.57866 -47.782168 148.193598 82.590004 11.36388 30.07852 -11.006083 34.35206 -76.347144
-68.9742 59.014 -31.4398 -12.739246 19.381767 -0.348298 4.697619 7.473211 -141.41335 3.903053 7.403914 157.224189 9.710842 18.716381 94.733115 -25.781926 5.394032 -71.964455 0.001451 0.0 0.003896 -0.004566 0.0 -0.000563 -0.617214 3.547401 0.808437 -102.595028 -25.577417 147.275551 6.477036 36.061692 -131.334613 172.358895 -16.941349 143.359859 7.487494 -7.479084 -0.669713 -2.022265 0.103857 -3.451163 -147.96457 -10.934492 119.867146 -19.716238 42.283384 8.515688 1.139802 -3.381435 -0.608944 -19.982698 44.46947 16.121076 0.003112 0.765296 0.239385 -155.80067 -6.313008 172.612427 5.126027 15.095262 4.623533 -17.68052 -35.183469 -18.344111 2.10903 -76.574694 21.596873 95.528518 -23.204077 161.143386 -7.931987 28.765004 150.751514 -145.643325 -43.094881 -135.728054 175.000272 -12.651666 -89.821009 -178.934708 -17.210438 -96.60997 155.793611 -25.408358 -122.256193 170.867651 -35.322654 -117.653829 -4.578623 -14.12492 2.117868 163.773325 -6.147872 -143.482336 -0.005616 0.830081 -0.260587 -6.378336 32.218729 -5.236533 -12.257773 41.449009 -10.284459 -0.467841 -3.391152 1.370122 179.987774 75.74757 0.009605 117.511109 60.276101 110.970524 47.556684 21.983526 -98.227935 -46.923736 -3.180772 27.811767 -0.002318 0.000399 -0.002442 74.59067 -44.826519 -83.533204 -67.432751 -60.766757 -161.759073 43.232607 -57.534738 -60.706402
-71.4287 59.3005 -32.1702 -13.71059 16.597024 -0.265434 2.900984 6.960764 152.866905 -6.866486 4.956022 -135.199314 10.322405 20.938619 109.974124 -26.081991 12.801907 -84.222977 -0.003931 0.0 -0.003111 0.00179 -0.0 -0.003437 2.413021 -17.784047 -3.589042 78.762209 19.742416 2.494237 -13.111133 40.72203 113.762059 -5.071626 -17.270105 -4.152721 9.139542 -9.131699 -0.684163 -46.760958 31.08514 38.038108 -129.26038 17.124864 108.553434 -168.606793 -22.365487 117.830067 -160.336052 -5.632329 143.085029 49.757967 -72.127006 23.51491 -15.816707 -56.11336 -28.342576 7.09043 52.92623 8.351838 10.883051 36.01918 9.31586 -118.509792 -40.228145 -116.577194 139.253417 45.299977 -143.457201 -131.877645 -23.157048 -171.024642 -2.040777 -1.360644 -112.330546 9.32873 46.053633 -4.582426 -25.222919 -24.238739 -1.61884 77.206499 36.316576 -60.63158 -20.87104 -37.226275 5.936949 151.965009 -5.221523 -111.586228 -12.366333 -38.248056 3.188832 -9.100428 -18.432296 1.453665 145.115298 -0.172747 179.074021 147.54901 -44.657759 170.011476 25.884084 -38.354848 24.938873 133.963631 -19.58002 132.482663 -179.995238 75.749096 -0.005406 120.076045 60.428451 172.809629 52.382184 -37.353448 55.988958 -7.829878 6.487062 173.849348 -0.002168 0.001766 -0.00073 75.167663 -42.984446 -15.15117 -69.62108 2.55676 92.214657 103.282025 3.961858 -36.457498
-73.9021 59.336299999999994 -33.0204 -14.851147 14.624788 0.005489 6.048844 10.770678 -31.649416 6.648348 -8.91853 50.729828 10.645562 21.040248 111.226434 -27.127783 13.391471 -84.560284 0.002545 -0.0 -6.6e-05 0.002545 -0.0 -6.6e-05 -2.933904 14.616298 3.660997 -109.71946 -29.869804 151.346422 18.447719 1.171416 -143.552666 -135.907065 40.822872 117.594046 -11.408276 10.730355 2.79247 17.253707 -19.185827 -4.247784 -158.739249 -30.758922 122.631303 -133.33987 31.619321 108.649673 7.155718 -22.413249 -2.865549 120.565788 -78.008643 90.34956 -145.113145 -0.26453 -179.045718 -128.605235 -68.603952 -150.509281 -6.540903 -14.588163 -6.15093 -124.060555 -34.408314 -122.885431 0.896869 5.05728 -1.166631 -67.486874 -2.936509 -43.362612 -177.285232 11.259616 -38.083597 -167.523953 -20.159362 -143.613321 -9.530209 -9.521875 0.680835 -3.082935 -9.158394 9.519361 -4.383389 -7.43443 2.277153 176.605199 -34.116184 -106.625818 156.134259 6.502222 -140.733028 176.476519 -41.635209 -142.501942 0.061284 -3.56151 1.120871 -10.714224 -1.358675 0.250581 -10.976272 36.388203 -9.384031 -15.64806 47.242894 -8.698916 -179.92543 75.749562 -0.059134 124.183855 62.167704 -141.691956 -8.63411 -57.69691 -27.809045 -127.981036 24.154795 178.964096 -179.986163 75.749572 -0.011898 -134.610115 -0.598961 -89.064548 -68.818898 2.592899 99.945507 -8.120415 6.79332 16.531346
-76.3563 59.0969 -33.9558 -16.065676 13.564864 0.471536 3.429967 8.887386 77.109566 -8.089886 -5.811737 -57.92578 10.929264 20.171359 105.866975 -27.778184 10.904729 -79.14976 -0.00161 0.0 -0.002277 -0.001418 -0.0 0.00089 -155.689732 -4.738697 162.096052 -60.209638 53.993741 6.52099 -164.729885 30.762908 -76.35028 -25.439518 -68.133542 -27.09354 -163.285563 -0.965563 89.408546 98.122057 -61.507988 71.472921 -7.013914 10.452638 4.381209 25.027016 -20.898312 -0.87003 0.441462 -1.293003 -0.241064 117.880565 -78.208222 87.722846 0.005004 1.058389 0.334922 8.890614 15.126164 2.02448 -20.607664 -33.83116 -19.770445 -20.42359 -38.515759 -21.970086 155.455571 -3.198156 -161.77154 49.928529 -14.808499 28.532032 176.607626 4.376921 78.674981 8.989756 26.479105 -1.165535 -168.582099 -27.436315 -86.47038 161.633684 1.892503 -94.259396 63.63469 43.004366 -51.895021 153.059025 7.657188 -110.906913 -14.217331 -43.171354 2.901426 166.526639 -14.366523 -144.040871 145.119369 0.182054 179.185422 149.328115 -39.086393 171.899882 14.533146 -27.067259 13.851585 158.078328 52.079337 149.702537 -179.976565 75.749606 -0.017015 127.658475 65.367407 -32.79506 -40.138424 21.531881 125.863888 -138.498005 31.630406 72.101896 -179.976565 75.749606 -0.017015 -134.990518 -2.382629 -89.297502 -68.597356 5.909416 103.755969 -22.209997 4.90691 14.292265
-78.719 58.6396 -34.9311 -17.155292 13.262934 0.971213 5.637495 5.944076 145.832781 -5.384484 4.177972 -125.904411 8.907968 13.63064 65.562767 -21.634865 -7.789192 -42.241425 -0.001106 0.0 -0.004347 -0.000932 0.0 -0.001219 -156.038524 -7.153204 162.594889 -56.517891 25.88295 5.367064 162.545804 -14.562636 -72.414693 -21.259177 -39.886691 -8.130975 -164.122868 -1.797956 89.517086 -99.551063 8.792665 42.245557 -139.154172 3.894282 115.270089 12.236755 -6.487293 -9.91284 -159.921507 -4.359671 142.879282 -167.542249 -17.689542 143.83736 -144.283899 -15.821367 -174.003989 -137.101554 -61.377247 -160.468658 -53.889993 -50.301696 -52.572039 -71.930721 -54.33787 -72.616631 8.132399 31.306085 -9.546754 73.664652 19.121553 -106.174486 -8.792513 8.018427 132.42058 -167.574758 -21.459494 -143.344138 -0.507536 -0.501258 0.075174 42.810703 27.700496 -38.285292 -179.602735 -59.246382 -116.495058 170.809571 -38.499884 -115.254318 36.44318 51.942586 -30.21305 157.795729 10.428623 -140.958943 -0.001772 0.233289 -0.073902 155.469823 -1.673296 -172.053041 29.50303 -40.890404 28.495914 155.0375 41.64859 148.521305 -179.990756 75.749305 -0.007919 132.741092 66.422251 -34.881298 -40.088131 16.287812 48.318396 130.432366 -30.877681 -3.041975 -0.001982 0.000337 -0.000812 81.414251 -48.068517 -176.091831 79.593187 -21.252028 123.756536 98.012977 4.948137 -167.346535
